<svg width="30" height="30" viewBox="0 0 30 30" fill="none" xmlns="http://www.w3.org/2000/svg">
<path d="M3.75 11.25V18.75H8.75L15 25V4.99998L8.75 11.25H3.75ZM20.625 15C20.6247 13.9526 20.3321 12.9262 19.78 12.0362C19.2278 11.1461 18.4382 10.428 17.5 9.96248V20.025C19.35 19.1125 20.625 17.2125 20.625 15ZM17.5 4.03748V6.61248C21.1125 7.68748 23.75 11.0375 23.75 15C23.75 18.9625 21.1125 22.3125 17.5 23.3875V25.9625C22.5125 24.825 26.25 20.35 26.25 15C26.25 9.64998 22.5125 5.17498 17.5 4.03748Z" fill="white"/>
</svg>
