<svg width="30" height="30" viewBox="0 0 30 30" fill="none" xmlns="http://www.w3.org/2000/svg">
<path d="M5.42498 3.66248L3.66248 5.42498L9.11248 10.875L8.74998 11.25H3.74998V18.75H8.74998L15 25V16.7625L20.225 21.9875C19.4125 22.6 18.5 23.0875 17.5 23.375V25.95C19.1504 25.5721 20.6935 24.8241 22.0125 23.7625L24.575 26.325L26.3375 24.5625L5.42498 3.66248ZM23.75 15C23.75 16.025 23.5625 17.0125 23.2375 17.925L25.15 19.8375C25.85 18.375 26.25 16.7375 26.25 15C26.25 9.64997 22.5125 5.17498 17.5 4.03748V6.61248C21.1125 7.68748 23.75 11.0375 23.75 15ZM15 4.99998L12.65 7.34998L15 9.69998V4.99998ZM20.625 15C20.6247 13.9526 20.332 12.9262 19.7799 12.0362C19.2278 11.1461 18.4382 10.428 17.5 9.96248V12.2L20.6 15.3C20.6125 15.2 20.625 15.1 20.625 15Z" fill="white"/>
</svg>
