<svg width="243" height="32" viewBox="0 0 243 32" fill="none" xmlns="http://www.w3.org/2000/svg">
<path d="M86.3268 8.87183H88.6697L85.3179 16.5395L89.3311 24.7117H86.8985L83.4121 17.5933H80.4975V24.7117H78.334V8.87183H80.4975V15.6203H83.4794L86.3268 8.87183Z" fill="#EBFCF8"/>
<path d="M108.22 11.3941V22.1894L105.687 24.7117H99.4202L96.8979 22.1894V11.3941L99.4202 8.87183H105.687L108.22 11.3941ZM100.496 10.8448L99.0502 12.2909V21.2926L100.496 22.7387H104.61L106.057 21.2926V12.2909L104.61 10.8448H100.496Z" fill="#EBFCF8"/>
<path d="M128.678 8.87183V24.7117H126.01L120.551 13.9164L119.89 12.0891H119.766V24.7117H117.749V8.87183H120.506L125.876 19.656L126.537 21.4944H126.661V8.87183H128.678Z" fill="#EBFCF8"/>
<path d="M141.817 10.8448L140.371 12.2909V21.2926L141.817 22.7387H145.931L147.837 20.9003L149.35 22.4137L147.007 24.7117H140.741L138.218 22.1894V11.3941L140.741 8.87183H146.738L148.935 11.0466L147.422 12.5712L145.651 10.8448H141.817Z" fill="#EBFCF8"/>
<path d="M166.512 17.6157H159.887V22.7387H167.252V24.7117H157.724V8.87183H167.252V10.8448H159.887V15.6427H166.512V17.6157Z" fill="#EBFCF8"/>
<path d="M178.474 18.647V24.7117H176.31V8.87183H184.09L186.623 11.3941V16.8086L184.09 19.3421H179.393L178.474 18.647ZM184.46 12.2909L183.014 10.8448H178.474V17.3691H183.014L184.46 15.923V12.2909Z" fill="#EBFCF8"/>
<path d="M204.784 8.87183V10.8448H200.221V24.7117H198.058V10.8448H193.484V8.87183H204.784Z" fill="#EBFCF8"/>
<path d="M221.487 17.6157H214.862V22.7387H222.227V24.7117H212.698V8.87183H222.227V10.8448H214.862V15.6427H221.487V17.6157Z" fill="#EBFCF8"/>
<path d="M242.461 11.3941V22.1894L239.939 24.7117H231.284V8.87183H239.939L242.461 11.3941ZM238.862 10.8448H233.448V22.7387H238.862L240.308 21.2926V12.2909L238.862 10.8448Z" fill="#EBFCF8"/>
<path fill-rule="evenodd" clip-rule="evenodd" d="M38.5089 25.7769V32H32.5543L31.3182 30.8901V25.7769H38.5089ZM16.8824 19.4651V25.8317L7.85264 32H0L10.9707 19.4651H16.8824ZM16.9407 9.57174H27.7586V30.8296L26.4944 32H20.5678V16.1566H10.9707L0 0H7.85264L16.9407 9.57174ZM38.5089 0V15.8434H48.106L59.0767 32H51.2241L42.136 22.4283H31.3182V1.17037L32.5823 0H38.5089ZM48.106 12.5349H42.1943V6.1683L51.2241 0H59.0767L48.106 12.5349ZM27.7586 1.10987V6.2231H20.5678V0H26.5224L27.7586 1.10987Z" fill="#AB13F2"/>
</svg>
