<svg width="30" height="30" viewBox="0 0 30 30" fill="none" xmlns="http://www.w3.org/2000/svg">
<path d="M21.25 16.7625L15.8875 11.4625C15.7713 11.3454 15.633 11.2524 15.4807 11.1889C15.3284 11.1254 15.165 11.0928 15 11.0928C14.835 11.0928 14.6716 11.1254 14.5193 11.1889C14.367 11.2524 14.2287 11.3454 14.1125 11.4625L8.8125 16.7625C8.69534 16.8787 8.60234 17.017 8.53888 17.1693C8.47542 17.3216 8.44275 17.485 8.44275 17.65C8.44275 17.815 8.47542 17.9784 8.53888 18.1307C8.60234 18.2831 8.69534 18.4213 8.8125 18.5375C9.0467 18.7703 9.36351 18.901 9.69375 18.901C10.024 18.901 10.3408 18.7703 10.575 18.5375L15 14.1125L19.425 18.5375C19.6578 18.7685 19.9721 18.8986 20.3 18.9C20.4645 18.901 20.6276 18.8694 20.7799 18.8072C20.9322 18.745 21.0707 18.6534 21.1875 18.5375C21.3088 18.4255 21.4068 18.2905 21.4757 18.1404C21.5446 17.9904 21.583 17.8281 21.5888 17.6631C21.5946 17.498 21.5677 17.3334 21.5095 17.1789C21.4514 17.0243 21.3632 16.8828 21.25 16.7625Z" fill="#087AFF"/>
</svg>
